<svg xmlns="http://www.w3.org/2000/svg" viewBox="0 0 512 512">
  <g fill="#e8edf4">
    <!-- Crest / plume fused to the dome and sweeping back -->
    <path d="M214 152
             C 234 72, 332 36, 452 66
             C 410 92, 398 128, 414 178
             C 388 160, 356 158, 336 172
             C 346 126, 312 104, 270 114
             C 246 106, 226 126, 214 152 Z" />
    <!-- Helmet (frontal Corinthian): dome + cheek guards, with eyes and
         central nasal guard carved as negative space (even-odd holes). -->
    <path fill-rule="evenodd" d="
      M256 94
      C 196 94, 146 150, 138 232
      C 134 284, 142 330, 160 372
      C 168 392, 178 410, 186 430
      C 192 444, 208 444, 214 430
      C 226 404, 236 384, 250 376
      C 253 374, 259 374, 262 376
      C 276 384, 286 404, 298 430
      C 304 444, 320 444, 326 430
      C 334 410, 344 392, 352 372
      C 370 330, 378 284, 374 232
      C 366 150, 316 94, 256 94 Z

      M168 256
      C 198 244, 230 250, 244 268
      C 232 282, 200 288, 174 282
      C 162 276, 160 264, 168 256 Z

      M344 256
      C 314 244, 282 250, 268 268
      C 280 282, 312 288, 338 282
      C 350 276, 352 264, 344 256 Z

      M232 282
      C 230 318, 232 350, 240 372
      L 246 370
      C 244 340, 244 308, 244 284
      C 240 282, 236 282, 232 282 Z

      M280 282
      C 282 318, 280 350, 272 372
      L 266 370
      C 268 340, 268 308, 268 284
      C 272 282, 276 282, 280 282 Z" />
  </g>
</svg>
